<?xml version="1.0" standalone="no"?>
<!DOCTYPE svg PUBLIC "-//W3C//DTD SVG 20010904//EN"
 "http://www.w3.org/TR/2001/REC-SVG-20010904/DTD/svg10.dtd">
<svg version="1.0" xmlns="http://www.w3.org/2000/svg"
 width="600.000000pt" height="600.000000pt" viewBox="0 0 600.000000 600.000000"
 preserveAspectRatio="xMidYMid meet">
<metadata>
Created by potrace 1.11, written by Peter Selinger 2001-2013
</metadata>
<g transform="translate(0.000000,600.000000) scale(0.100000,-0.100000)"
fill="#000000" stroke="none">
<path d="M1198 4731 c3 -9 1 -12 -6 -7 -7 4 -12 2 -12 -4 0 -6 -4 -8 -10 -5
-5 3 -10 -1 -10 -9 0 -9 -5 -16 -11 -16 -6 0 -17 -7 -26 -15 -8 -8 -20 -12
-26 -8 -7 3 -9 3 -5 -1 9 -10 -34 -52 -50 -48 -7 2 -11 -3 -10 -10 2 -7 -3
-12 -9 -10 -7 1 -13 -6 -13 -15 0 -15 -2 -16 -10 -3 -8 13 -10 12 -10 -4 0
-12 -5 -16 -14 -13 -10 4 -13 1 -10 -7 6 -14 -22 -30 -37 -21 -5 4 -6 -2 -2
-11 5 -14 3 -16 -11 -11 -10 4 -15 3 -11 -3 3 -6 1 -10 -5 -10 -6 0 -8 -5 -5
-10 4 -7 -3 -9 -19 -6 -14 3 -26 0 -26 -5 0 -6 -5 -7 -12 -3 -16 10 -58 12
-52 2 8 -13 -11 -9 -25 5 -11 10 -13 9 -8 -6 5 -14 3 -16 -11 -9 -9 5 -23 7
-31 4 -9 -3 -11 0 -7 9 4 8 1 6 -7 -3 -13 -16 -15 -16 -32 0 -16 14 -17 14 -7
1 10 -14 10 -18 -4 -23 -23 -9 -31 -7 -14 4 12 8 9 10 -13 10 -16 0 -26 -4
-22 -10 3 -5 1 -10 -4 -10 -6 0 -11 5 -11 10 0 6 -5 10 -11 10 -5 0 -8 -4 -5
-8 2 -4 -4 -8 -15 -8 -10 0 -19 4 -19 8 0 5 -8 4 -18 -1 -13 -7 -23 -6 -31 2
-10 9 -11 8 -6 -5 5 -13 2 -15 -13 -11 -14 3 -22 -1 -27 -16 -3 -12 -11 -21
-16 -21 -5 0 -9 -7 -9 -16 0 -8 -4 -12 -10 -9 -5 3 -10 1 -10 -5 0 -6 -4 -8
-10 -5 -5 3 -7 0 -4 -8 3 -8 0 -18 -7 -23 -8 -5 -10 -3 -4 6 5 9 4 11 -4 6 -9
-6 -9 -11 1 -24 10 -12 10 -14 1 -8 -8 4 -13 2 -13 -5 0 -9 -3 -9 -14 0 -12
10 -13 8 -9 -8 3 -12 1 -21 -6 -21 -6 0 -11 -7 -11 -15 0 -8 -5 -15 -11 -15
-5 0 -7 6 -3 13 5 8 3 8 -9 -2 -9 -7 -14 -17 -11 -22 3 -5 -2 -6 -10 -3 -9 3
-13 11 -10 18 3 6 -1 3 -9 -7 -10 -12 -17 -15 -22 -7 -5 8 -11 8 -21 -1 -8 -6
-14 -8 -14 -3 0 5 -5 2 -10 -6 -8 -12 -10 -12 -10 -1 0 10 -3 11 -14 2 -11 -9
-15 -9 -19 1 -4 10 -6 10 -6 -1 -1 -11 -4 -11 -18 0 -15 12 -16 12 -10 -4 4
-11 3 -16 -3 -12 -17 10 -51 14 -45 6 3 -5 -2 -12 -11 -15 -8 -3 -13 -2 -10 3
4 5 -3 7 -15 4 -16 -4 -17 -8 -7 -14 10 -7 10 -9 -2 -9 -14 0 -16 -16 -14
-102 2 -124 2 -120 12 -114 5 3 9 -1 9 -8 0 -8 -7 -12 -16 -9 -11 3 -10 0 3
-11 18 -14 15 -21 -7 -17 -4 1 -1 -9 8 -22 8 -13 12 -26 9 -30 -13 -13 -9 -52
6 -65 8 -8 10 -11 4 -8 -8 4 -11 -3 -10 -18 0 -13 3 -24 6 -24 20 1 30 -4 25
-12 -3 -5 1 -10 10 -10 8 0 20 -10 25 -22 5 -13 9 -17 9 -10 1 10 4 10 15 0 8
-7 12 -16 10 -20 -3 -4 4 -5 15 -3 15 3 18 0 14 -12 -4 -11 -2 -14 5 -9 7 4
12 2 12 -4 0 -7 6 -10 13 -8 13 5 58 -37 49 -46 -3 -3 5 -6 17 -6 12 0 20 -4
17 -8 -2 -4 4 -14 16 -21 15 -9 18 -10 13 0 -6 8 -4 10 4 5 7 -5 10 -15 6 -24
-3 -9 -3 -13 1 -9 4 4 14 1 22 -6 13 -10 14 -9 8 3 -5 8 3 2 18 -14 14 -16 26
-26 26 -22 0 4 10 -2 22 -13 11 -11 25 -18 29 -15 5 3 6 -3 2 -12 -4 -11 -2
-15 7 -12 8 2 22 -3 31 -11 10 -9 25 -22 34 -29 8 -7 13 -17 10 -23 -4 -5 -1
-9 4 -9 6 0 11 5 11 10 0 6 6 5 14 -2 8 -7 11 -17 8 -22 -3 -5 0 -6 6 -2 6 3
13 2 17 -4 4 -6 10 -8 15 -5 5 3 12 -4 15 -16 4 -11 9 -18 12 -15 3 3 12 -2
20 -10 8 -8 19 -12 24 -8 5 3 8 0 7 -8 -2 -7 3 -12 11 -10 12 3 12 1 0 -14 -9
-12 -9 -15 -1 -10 7 4 12 2 12 -6 0 -9 3 -9 10 2 7 11 10 11 10 2 0 -7 5 -10
10 -7 6 3 10 -1 10 -9 0 -9 6 -15 13 -13 6 1 11 -4 9 -11 -1 -8 2 -11 8 -7 5
3 10 1 10 -4 0 -6 3 -10 8 -8 4 1 17 -7 29 -18 40 -37 51 -44 59 -37 4 4 4 -1
1 -10 -4 -12 -2 -15 7 -12 8 3 17 0 21 -5 3 -6 11 -8 17 -5 7 4 8 2 4 -4 -12
-20 4 -35 22 -20 9 7 13 9 11 3 -7 -12 26 -46 35 -37 3 3 6 0 6 -7 0 -7 5 -9
10 -6 6 3 10 -1 10 -10 0 -13 4 -14 20 -5 14 8 20 8 20 0 0 -6 7 -4 16 4 21
21 40 21 23 -1 -13 -15 -11 -15 13 1 25 16 27 16 37 -1 6 -10 11 -13 11 -7 0
20 95 40 106 23 3 -5 14 -4 25 1 14 8 19 7 19 -2 0 -11 2 -11 8 0 5 7 16 10
25 6 11 -4 17 -1 17 7 0 10 3 10 12 1 8 -8 17 -8 31 -1 15 9 18 8 12 -2 -6 -9
-3 -11 9 -6 9 4 15 3 12 -2 -3 -5 1 -12 10 -15 10 -4 14 -12 10 -22 -6 -15 -4
-15 11 -3 10 7 15 9 11 5 -4 -5 -2 -16 5 -24 10 -13 9 -14 -3 -7 -13 8 -13 6
-1 -8 7 -9 18 -14 24 -10 6 4 8 0 5 -9 -4 -9 5 -24 23 -39 16 -13 37 -35 46
-49 16 -24 16 -25 -3 -10 -18 14 -18 14 -5 -2 7 -10 19 -18 26 -18 13 0 42
-58 37 -74 -2 -5 4 -4 12 4 16 13 22 4 16 -25 -1 -5 4 -4 11 3 18 17 34 15 19
-3 -10 -12 -8 -14 9 -10 12 2 21 -1 21 -7 0 -6 6 -5 16 2 8 8 14 9 13 4 -3
-19 1 -34 12 -34 5 0 7 6 3 13 -6 9 -5 9 8 0 8 -7 18 -9 22 -5 4 4 6 0 4 -8
-2 -9 6 -16 20 -18 12 -2 22 -7 22 -12 0 -5 9 -7 20 -5 11 2 18 0 15 -6 -7
-11 36 -29 49 -21 5 3 7 -2 3 -10 -4 -12 -1 -14 14 -11 11 3 19 0 19 -6 0 -7
4 -10 9 -6 6 3 19 -5 30 -17 14 -15 21 -17 21 -8 0 9 6 6 15 -7 9 -13 22 -20
30 -17 8 4 15 1 15 -6 0 -6 4 -9 9 -5 6 3 14 -2 19 -11 6 -11 21 -17 41 -16
17 0 29 -4 26 -9 -4 -5 -1 -9 5 -9 6 0 8 -5 4 -12 -4 -7 -3 -8 5 -4 6 4 8 13
4 19 -5 8 -2 8 9 0 8 -7 19 -9 23 -5 5 4 5 2 2 -5 -4 -6 -2 -13 4 -15 5 -2 7
-11 3 -21 -5 -15 -9 -15 -22 -5 -12 10 -14 10 -8 1 4 -8 2 -13 -4 -13 -6 0 -9
-4 -6 -9 4 -5 -3 -7 -14 -4 -12 3 -20 0 -20 -7 0 -10 -3 -10 -15 0 -13 11 -14
10 -9 -6 4 -10 4 -16 -1 -12 -4 4 -14 0 -22 -10 -14 -16 -14 -16 -8 3 4 15 -1
12 -20 -10 -15 -16 -24 -24 -20 -17 11 21 -13 13 -31 -10 -11 -15 -14 -17 -11
-6 4 10 1 20 -6 24 -7 4 -9 4 -5 -1 12 -12 -21 -38 -42 -32 -11 3 -19 2 -18
-2 2 -20 -4 -30 -17 -25 -8 4 -15 1 -15 -5 0 -6 -7 -8 -17 -4 -10 4 -14 2 -10
-4 8 -12 -20 -26 -34 -17 -5 3 -9 0 -9 -6 0 -6 -4 -8 -10 -5 -5 3 -10 0 -10
-7 0 -9 -3 -9 -10 2 -8 13 -10 12 -10 -3 0 -10 -4 -15 -10 -12 -13 8 -52 -19
-42 -29 4 -4 3 -7 -3 -6 -24 5 -37 -1 -32 -15 4 -8 1 -17 -5 -21 -7 -5 -8 -2
-3 6 5 9 4 11 -4 6 -9 -6 -9 -11 0 -22 6 -8 8 -14 5 -14 -4 0 -2 -9 4 -19 7
-14 6 -21 -3 -24 -9 -4 -9 -6 1 -6 7 -1 10 -6 7 -11 -4 -6 -1 -18 7 -27 9 -12
9 -15 1 -9 -7 4 -13 3 -13 -3 0 -5 5 -11 12 -13 6 -2 13 -19 14 -36 1 -18 -2
-30 -7 -27 -5 4 -6 -1 -3 -9 3 -9 11 -16 18 -16 6 0 4 -5 -4 -10 -8 -5 -10
-10 -4 -10 17 0 25 -28 12 -36 -7 -5 -8 -2 -3 6 5 9 4 11 -3 6 -8 -5 -9 -13
-2 -25 5 -10 6 -21 2 -25 -3 -4 0 -4 9 -1 11 4 15 -1 15 -19 0 -14 -4 -22 -9
-19 -5 3 -1 -6 8 -21 14 -20 14 -26 4 -26 -10 -1 -9 -4 4 -14 19 -15 24 -31 5
-20 -6 4 -8 3 -5 -3 4 -6 22 -9 42 -7 19 1 35 -2 35 -7 0 -6 -5 -7 -12 -3 -7
4 -8 3 -4 -4 8 -13 36 -5 36 10 0 5 5 6 10 3 6 -3 10 -1 10 4 0 6 6 10 13 9 6
-2 11 3 9 10 -1 8 6 11 22 8 19 -3 23 -1 19 10 -3 9 0 14 8 12 8 -2 13 3 11
10 -1 8 2 11 7 7 6 -3 22 1 35 10 14 9 29 14 34 11 6 -3 16 2 23 11 12 14 12
16 0 8 -10 -5 -12 -4 -7 3 4 7 15 12 25 12 10 0 26 10 35 23 9 12 14 16 11 9
-3 -6 -3 -12 0 -12 10 0 35 27 30 32 -3 3 2 5 10 5 8 0 11 -5 8 -11 -4 -6 1
-5 10 3 13 10 20 11 30 2 10 -8 17 -7 27 2 10 10 12 9 8 -3 -4 -11 1 -16 13
-16 13 0 18 5 14 15 -5 12 -3 12 12 -1 10 -8 24 -13 32 -10 8 3 11 0 7 -7 -4
-6 -2 -11 3 -11 13 0 10 -22 -4 -32 -6 -4 -2 -8 8 -8 15 0 16 -3 6 -22 -9 -17
-9 -20 3 -15 8 3 15 -1 15 -9 0 -7 -5 -10 -11 -7 -6 4 -5 0 2 -9 9 -12 10 -18
2 -23 -8 -5 -8 -11 1 -21 6 -7 9 -20 6 -29 -4 -8 -2 -17 4 -20 5 -4 7 -11 4
-16 -4 -5 -1 -9 6 -9 9 0 9 -3 0 -14 -9 -11 -9 -16 0 -22 8 -5 10 -3 4 7 -5 8
-4 11 0 6 10 -9 14 -57 4 -51 -4 2 -13 -4 -20 -13 -10 -12 -10 -14 -1 -9 6 4
12 2 12 -3 0 -6 -5 -11 -10 -11 -6 0 -9 -6 -8 -12 2 -7 -3 -12 -11 -10 -12 3
-12 0 -2 -12 11 -13 10 -17 -3 -22 -10 -4 -15 -13 -12 -20 3 -8 -2 -14 -12
-15 -11 0 -13 -2 -4 -6 10 -4 9 -9 -5 -20 -11 -9 -12 -12 -3 -8 8 4 6 -1 -4
-9 -15 -12 -16 -16 -5 -16 9 0 5 -8 -11 -21 -14 -11 -19 -18 -13 -14 9 4 11 1
7 -9 -3 -9 -10 -14 -14 -11 -5 3 -5 -8 0 -24 7 -25 6 -29 -8 -23 -14 5 -15 4
-2 -10 8 -9 19 -13 24 -10 5 3 6 -3 2 -13 -5 -15 -4 -16 9 -5 13 11 16 11 13
1 -2 -8 5 -15 15 -16 9 -2 17 2 17 8 0 8 3 8 8 2 8 -13 22 -13 41 -1 10 6 12
5 7 -2 -9 -16 7 -15 22 0 9 9 12 9 12 0 0 -16 27 -15 33 1 4 9 6 8 6 -2 1 -11
4 -11 18 0 11 10 14 10 9 2 -9 -16 -1 -16 26 -2 12 6 18 7 14 1 -8 -13 47 -10
56 3 5 6 8 5 8 -4 0 -11 3 -11 15 -1 8 7 15 8 15 3 0 -11 50 -11 68 0 6 5 12
4 12 -1 0 -12 34 -11 42 2 5 7 8 6 8 -3 0 -11 3 -11 15 -1 8 7 15 8 15 3 0 -5
7 -10 15 -10 8 0 12 4 10 8 -3 4 2 10 11 13 10 4 13 2 8 -6 -5 -7 -3 -8 5 -3
7 4 11 16 8 26 -3 12 -1 17 6 12 6 -4 8 0 4 10 -6 16 4 22 27 18 5 -1 4 4 -3
13 -8 10 -9 16 -1 21 6 4 9 14 8 23 -2 9 2 16 8 15 6 -1 11 6 11 15 0 34 3 43
12 37 6 -3 8 4 6 15 -3 14 1 20 13 20 13 0 14 2 3 9 -10 6 -10 10 -1 16 6 4 9
13 6 20 -2 7 2 16 10 19 8 3 14 10 14 16 0 6 -6 8 -12 5 -7 -4 -6 -1 3 7 9 7
15 21 13 31 -1 9 2 15 7 11 5 -3 9 4 9 16 0 14 4 19 13 14 6 -4 9 -4 5 1 -4 4
-2 15 5 23 6 9 7 13 1 9 -6 -3 -11 0 -11 8 0 8 4 12 9 9 4 -3 8 0 8 6 0 6 5 8
13 4 8 -5 8 -2 -2 9 -7 9 -10 17 -5 17 10 0 10 67 -1 92 -4 9 -3 22 1 29 4 7
3 10 -2 6 -5 -3 -10 11 -11 31 -4 65 -10 137 -13 147 -2 6 0 18 5 28 6 15 10
16 16 5 6 -9 9 -7 9 10 0 13 6 22 16 22 11 0 14 5 10 16 -5 14 -4 15 9 4 12
-10 15 -10 15 5 0 11 5 15 14 12 10 -4 13 -1 9 9 -3 8 1 14 11 14 10 0 13 6
10 15 -5 11 -2 13 10 9 9 -4 16 -1 16 6 0 7 7 10 16 6 13 -5 14 -4 6 7 -9 10
-9 14 1 14 6 0 21 4 31 9 14 5 17 4 12 -4 -4 -7 -2 -12 3 -12 6 0 11 4 11 9 0
5 12 8 26 5 16 -3 23 -1 19 6 -8 13 8 13 22 -1 8 -8 13 -7 18 2 6 8 4 10 -6 4
-11 -6 -11 -5 -3 4 9 10 17 10 34 1 18 -10 21 -9 15 1 -6 9 -3 11 8 6 10 -4
17 -1 17 6 0 8 4 7 10 -3 7 -12 12 -12 28 4 15 13 22 14 28 5 4 -8 3 -10 -4
-5 -7 4 -12 2 -12 -4 0 -7 7 -9 16 -6 9 3 18 6 20 6 3 0 3 4 0 9 -4 5 2 8 11
6 10 -1 24 3 32 9 12 9 13 8 6 -3 -6 -10 -4 -13 6 -9 11 4 14 -10 14 -78 0
-56 -4 -83 -11 -80 -6 2 -11 -2 -11 -10 0 -8 5 -13 12 -11 7 3 9 -7 7 -29 -3
-22 0 -34 7 -34 7 0 9 -5 6 -10 -4 -6 -3 -9 2 -8 4 2 9 -1 10 -5 1 -5 10 -15
20 -24 10 -8 12 -12 6 -8 -9 4 -11 1 -7 -10 4 -11 10 -12 18 -6 8 7 12 4 13
-11 1 -11 10 -27 20 -35 10 -8 12 -12 6 -8 -7 3 -13 1 -13 -4 0 -6 7 -11 15
-11 8 0 15 -9 15 -21 0 -13 4 -18 12 -13 8 5 9 2 5 -9 -3 -9 -3 -16 1 -14 4 1
7 -2 7 -6 0 -5 8 -13 18 -18 9 -6 17 -17 17 -24 0 -8 5 -15 11 -15 6 0 9 -7 6
-15 -4 -8 -1 -17 5 -21 7 -4 8 -3 4 4 -4 7 -2 12 5 12 7 0 9 -8 6 -21 -3 -12
-3 -18 0 -15 11 11 32 -15 26 -31 -5 -12 -3 -14 7 -8 10 6 12 1 7 -21 -3 -16
-4 -23 -1 -16 3 6 11 12 17 12 7 -1 1 -10 -12 -20 -14 -12 -18 -20 -10 -20 12
0 12 -2 1 -9 -8 -4 -14 -12 -15 -17 -1 -5 -6 -8 -10 -6 -5 1 -6 -2 -2 -8 3 -5
0 -10 -7 -10 -9 0 -9 -3 2 -10 11 -7 11 -10 2 -10 -7 0 -10 -5 -7 -10 4 -6 1
-9 -7 -8 -8 2 -13 -6 -12 -20 1 -17 -3 -22 -13 -17 -11 3 -13 1 -9 -10 3 -8 0
-15 -5 -15 -7 0 -9 -9 -6 -21 3 -12 3 -19 0 -16 -11 12 -40 -26 -35 -46 3 -13
1 -18 -5 -14 -14 9 -21 -9 -19 -48 1 -20 6 -29 15 -27 12 3 12 0 1 -13 -11
-13 -10 -15 4 -9 9 3 16 2 16 -4 0 -12 18 -11 39 2 10 6 12 5 7 -2 -9 -16 7
-15 22 0 7 7 12 8 12 2 0 -12 49 -13 68 -1 7 5 12 3 12 -4 0 -8 5 -7 17 2 11
10 14 10 9 2 -9 -16 -1 -16 26 -2 15 8 19 8 14 0 -9 -14 36 -10 46 4 5 6 8 6
8 -2 0 -13 18 -12 39 1 10 6 12 5 7 -2 -9 -16 7 -15 22 0 9 9 12 9 12 0 0 -16
27 -15 33 1 4 9 6 8 6 -2 1 -11 4 -11 18 0 11 10 14 10 9 2 -9 -16 -1 -16 26
-2 15 8 19 8 14 0 -9 -14 7 -14 21 0 8 8 13 8 17 0 4 -6 12 -11 17 -11 6 0 8
4 5 9 -8 12 27 8 36 -4 5 -6 8 -6 8 1 0 7 9 14 20 17 11 3 20 10 20 17 0 6 -5
8 -12 4 -9 -5 -9 -3 1 9 7 9 18 14 24 10 6 -3 7 -1 3 5 -4 7 -2 12 5 12 8 0 8
4 -1 15 -7 8 -10 16 -6 16 3 1 11 3 16 4 6 1 13 3 16 4 4 0 0 9 -7 18 -12 14
-12 16 0 8 11 -6 13 -4 8 8 -3 9 -2 19 3 22 4 3 10 -1 13 -7 2 -7 4 0 4 17 0
16 6 31 12 33 6 2 11 10 11 18 0 9 5 12 13 8 9 -6 9 -4 0 6 -10 11 -9 18 9 37
12 13 18 23 13 23 -5 0 0 7 11 16 10 8 13 13 7 9 -20 -10 -15 2 10 26 18 18
18 21 4 16 -13 -5 -16 -3 -10 6 4 6 6 25 4 41 -2 20 1 26 10 21 7 -5 10 -4 5
3 -3 6 -15 9 -26 7 -14 -3 -18 0 -13 8 10 16 10 76 0 70 -10 -6 -26 38 -20 55
3 7 -1 20 -8 29 -10 12 -10 15 -1 9 6 -4 12 -2 12 3 0 6 -5 11 -11 11 -6 0 -9
9 -6 20 4 14 0 20 -11 21 -11 0 -12 2 -5 6 9 3 10 10 3 23 -7 13 -7 21 0 25 5
3 10 1 10 -6 0 -7 3 -9 6 -6 4 4 2 13 -5 21 -9 11 -8 15 5 20 11 4 15 14 11
31 -2 14 0 28 6 32 5 3 7 1 3 -5 -3 -6 -3 -13 2 -16 4 -2 9 7 10 21 1 15 9 34
17 43 12 13 12 19 2 29 -9 10 -9 12 3 9 9 -2 14 3 12 13 -3 21 37 33 44 14 3
-7 15 -15 26 -18 13 -4 18 -11 15 -20 -4 -10 2 -13 19 -11 15 1 24 -3 24 -12
0 -8 6 -14 14 -14 8 0 22 -10 30 -22 11 -15 16 -18 16 -8 1 10 9 5 25 -13 13
-15 30 -26 37 -25 7 2 12 -3 13 -11 0 -8 9 -17 20 -22 11 -4 16 -8 10 -9 -5
-1 1 -5 15 -9 14 -4 24 -13 22 -20 -1 -7 2 -10 8 -6 5 3 10 1 10 -5 0 -6 5 -8
10 -5 6 3 10 1 10 -5 0 -6 5 -8 12 -4 7 5 9 2 5 -9 -4 -12 -2 -14 10 -10 11 4
14 2 9 -5 -5 -8 0 -12 14 -12 12 0 24 -9 30 -22 5 -13 9 -17 9 -10 1 7 6 10
11 7 6 -4 8 -11 5 -16 -3 -5 0 -6 8 -3 8 3 23 -5 34 -19 10 -13 29 -27 41 -31
12 -4 20 -11 17 -16 -3 -5 5 -10 17 -12 12 -2 27 -12 33 -24 6 -12 19 -20 31
-19 16 1 20 -3 16 -17 -2 -10 1 -18 7 -18 7 0 9 6 6 13 -4 6 2 2 13 -10 11
-12 22 -20 25 -17 3 3 10 -4 17 -15 6 -12 18 -21 28 -21 23 -1 62 -35 62 -55
0 -9 4 -14 9 -10 6 3 8 -4 6 -16 -3 -13 -10 -26 -17 -30 -14 -9 -15 -12 -17
-55 -1 -17 -5 -23 -13 -18 -8 5 -7 0 2 -11 14 -17 13 -18 -3 -12 -15 6 -16 4
-6 -14 8 -15 8 -19 0 -15 -11 7 -14 -1 -14 -37 0 -10 -5 -16 -12 -14 -6 3 -12
-1 -12 -9 0 -8 5 -14 11 -14 8 0 8 -2 0 -8 -15 -10 -26 -54 -11 -45 6 4 8 0 4
-10 -4 -11 -1 -15 13 -12 11 2 19 1 19 -3 -3 -20 3 -23 18 -11 11 10 14 10 9
2 -9 -16 35 -13 46 2 5 6 8 6 8 -2 0 -13 18 -12 39 1 10 6 12 5 7 -2 -9 -16 7
-15 22 0 9 9 12 9 12 0 0 -7 7 -12 15 -12 8 0 15 6 15 13 0 7 3 8 8 2 11 -16
34 -17 43 -3 7 10 9 10 9 -1 0 -11 3 -11 15 -1 8 7 15 8 15 3 0 -11 50 -11 68
0 6 5 12 4 12 -1 0 -12 34 -11 42 2 5 7 8 6 8 -3 0 -11 3 -11 15 -1 8 7 15 8
15 3 0 -11 50 -11 68 0 7 5 12 3 12 -4 0 -8 5 -7 17 2 11 10 14 10 9 2 -9 -16
-1 -16 26 -2 11 6 18 7 15 2 -4 -5 11 -9 33 -9 28 1 36 4 29 13 -7 7 -6 14 2
19 8 4 9 3 5 -4 -4 -7 -2 -12 3 -12 6 0 14 18 17 40 4 22 11 40 16 40 5 0 4
10 -3 21 -6 12 -7 19 -1 15 5 -3 13 1 16 10 3 8 2 12 -4 9 -6 -3 -7 1 -4 9 3
9 9 14 13 12 3 -2 6 16 6 40 -1 30 3 44 12 44 7 0 13 5 13 11 0 5 -6 7 -12 3
-10 -5 -10 -4 -1 6 6 7 9 19 6 28 -5 11 -3 13 8 7 8 -4 11 -5 7 0 -4 4 -3 15
2 25 6 12 4 24 -7 40 -15 21 -15 22 3 12 18 -9 19 -6 18 61 0 40 -5 82 -12 93
-6 12 -9 24 -6 27 3 3 -3 4 -13 4 -10 -1 -18 5 -18 13 0 8 -8 22 -17 31 -10 9
-18 20 -18 24 0 4 -8 14 -18 23 -10 10 -13 15 -7 12 6 -3 1 4 -12 15 -13 12
-23 27 -23 35 0 9 -9 21 -21 28 -11 7 -18 19 -15 27 3 10 0 12 -11 8 -10 -4
-14 -2 -9 5 3 6 2 13 -4 17 -6 4 -8 11 -5 16 4 5 -2 9 -12 9 -15 0 -16 2 -3
10 13 8 12 10 -2 10 -10 0 -18 7 -18 16 0 8 -4 12 -10 9 -5 -3 -10 1 -10 10 0
21 -25 46 -36 37 -5 -4 -3 0 3 8 8 11 8 18 -2 27 -7 6 -16 9 -19 6 -3 -4 -6 4
-6 16 0 12 -7 24 -16 28 -8 3 -13 12 -10 20 3 8 1 11 -4 8 -13 -8 -13 1 1 27
8 15 8 19 0 14 -12 -8 -15 6 -4 18 11 10 12 37 2 30 -13 -8 -11 10 4 25 10 11
9 12 -3 6 -13 -8 -13 -7 -1 8 10 13 11 20 2 30 -6 8 -8 17 -5 20 11 10 12 117
1 117 -6 0 -6 5 0 13 5 6 8 40 8 75 0 34 3 62 8 62 4 0 5 5 2 10 -12 20 -12
111 1 106 7 -3 10 5 9 17 -1 12 -3 30 -4 40 0 11 -6 15 -13 11 -7 -4 -8 -3 -4
5 4 6 12 9 17 6 5 -4 9 -1 9 4 0 6 -4 11 -10 11 -5 0 -10 5 -10 11 0 5 5 7 11
3 7 -4 10 -1 7 7 -3 8 -11 13 -17 11 -7 -1 -10 2 -6 8 3 6 11 8 16 5 5 -4 9
-1 9 4 0 6 -4 11 -10 11 -5 0 -10 5 -10 11 0 5 5 7 11 3 7 -4 7 1 -1 16 -8 15
-8 20 -1 16 6 -4 11 -2 11 3 0 6 -6 11 -12 11 -9 0 -10 3 -2 8 11 7 27 55 16
48 -10 -6 -7 137 3 153 6 10 4 12 -5 6 -9 -6 -11 -4 -5 6 5 7 9 24 8 36 -1 13
-1 37 -2 54 -1 28 -3 30 -18 18 -10 -9 -14 -9 -10 -2 8 13 -67 93 -86 93 -6 0
-7 3 -4 6 4 4 15 1 24 -7 16 -13 17 -12 4 4 -7 9 -20 17 -28 17 -8 0 -11 5 -8
10 3 6 -1 10 -9 10 -9 0 -21 9 -28 20 -7 11 -20 20 -28 20 -13 0 -13 1 0 10
13 8 12 10 -3 10 -10 0 -15 5 -12 10 3 6 2 10 -4 10 -15 0 -62 46 -54 53 3 4
0 7 -7 7 -15 0 -60 46 -52 54 3 3 -1 6 -8 6 -8 0 -37 25 -66 54 -28 30 -55 52
-59 48 -5 -4 -5 1 -2 11 4 9 2 17 -3 17 -5 0 -23 15 -41 33 -17 17 -28 26 -25
20 4 -7 2 -13 -3 -13 -6 0 -11 9 -11 21 0 11 -4 17 -10 14 -9 -5 -14 7 -12 26
1 4 -9 5 -21 3 -12 -2 -17 -2 -10 2 8 4 7 10 -5 23 -9 10 -21 16 -26 13 -5 -3
-7 2 -3 11 4 11 1 15 -13 12 -11 -2 -19 -1 -19 3 3 18 -2 35 -8 29 -3 -4 -14
7 -24 23 -11 17 -24 30 -30 30 -7 0 -18 8 -26 18 -9 10 -12 11 -7 2 4 -8 -5
-4 -19 9 -23 21 -27 22 -33 7 -6 -15 -7 -15 -21 1 -8 10 -12 13 -9 7 3 -7 -1
-15 -10 -18 -8 -3 -12 -2 -9 4 3 5 -9 8 -30 6 -20 -1 -35 2 -35 8 0 6 -5 4
-10 -4 -5 -8 -10 -10 -10 -5 0 6 -9 11 -20 11 -11 0 -20 -4 -20 -7 0 -4 -14
-4 -30 1 -17 5 -30 5 -30 0 0 -5 -13 -5 -30 0 -20 6 -30 5 -30 -2 0 -7 -4 -7
-12 -1 -7 5 -25 8 -41 7 -15 -2 -25 1 -23 5 3 4 -1 8 -9 8 -8 0 -12 -4 -9 -8
2 -4 -8 -7 -23 -5 -16 1 -37 -2 -48 -7 -18 -9 -19 -8 -6 6 16 20 8 22 -21 6
-18 -10 -20 -9 -15 5 4 9 2 16 -3 16 -6 0 -10 -8 -10 -17 0 -15 -2 -14 -16 3
-8 10 -13 14 -10 8 8 -15 -21 -26 -30 -12 -4 7 -3 8 4 4 8 -5 10 -1 5 10 -5
14 -8 13 -20 -7 -8 -13 -12 -16 -9 -7 3 10 1 20 -5 23 -5 4 -9 3 -8 -2 1 -4 1
-15 0 -23 -1 -12 -3 -12 -10 -2 -12 19 -61 23 -61 5 0 -11 -6 -8 -21 8 -11 13
-18 18 -14 11 5 -10 0 -11 -21 -6 -21 6 -25 4 -19 -7 8 -12 6 -12 -8 0 -9 7
-17 10 -17 6 0 -4 -8 -1 -17 6 -13 11 -15 11 -9 1 6 -9 1 -12 -16 -10 -12 2
-29 7 -37 12 -10 6 -12 5 -7 -2 4 -7 2 -12 -3 -12 -6 0 -11 4 -11 8 0 4 -9 8
-20 8 -11 0 -20 -4 -20 -7 0 -4 -13 -4 -29 1 -19 5 -33 4 -40 -3 -7 -7 -11 -7
-11 -1 0 12 -29 12 -47 1 -6 -4 -14 -3 -18 3 -4 6 -11 7 -17 4 -6 -4 -14 0
-19 7 -7 11 -9 11 -9 1 0 -7 -5 -10 -10 -7 -6 4 -7 11 -4 17 4 7 2 8 -5 4 -6
-4 -9 -11 -6 -16 3 -4 -2 -11 -11 -14 -8 -3 -13 -2 -10 3 3 5 -3 11 -14 14
-13 3 -18 1 -13 -6 4 -7 0 -8 -11 -4 -10 4 -20 7 -22 7 -3 0 -2 5 2 12 4 7 3
8 -5 4 -6 -4 -9 -11 -6 -16 7 -11 -42 -6 -53 5 -4 4 -2 5 4 2 6 -3 11 0 11 8
0 10 -4 12 -12 5 -7 -5 -16 -6 -20 -2 -5 4 -5 -1 -2 -10 9 -24 2 -23 -23 5
-14 14 -19 16 -15 6 4 -10 1 -20 -6 -25 -7 -4 -10 -3 -5 4 3 6 2 13 -4 17 -5
3 -10 -1 -10 -9 0 -9 -5 -16 -11 -16 -5 0 -8 4 -4 9 3 5 1 12 -5 16 -5 3 -10
0 -10 -7 0 -8 -3 -9 -8 -3 -9 12 -54 16 -46 4 3 -5 1 -9 -5 -9 -5 0 -11 5 -13
12 -2 6 -12 12 -21 14 -9 1 -15 -2 -11 -7 10 -17 -5 -9 -28 14 -13 13 -31 23
-41 21 -9 -1 -15 3 -14 9 1 7 -6 12 -16 12 -18 0 -39 24 -31 36 2 4 -5 5 -16
2 -12 -3 -20 0 -20 8 0 7 -3 10 -6 6 -4 -3 -13 1 -21 9 -8 8 -18 12 -23 9 -5
-3 -12 4 -15 16 -6 17 -9 19 -16 8 -6 -10 -9 -11 -9 -1 0 6 -7 12 -15 12 -8 0
-15 5 -15 10 0 6 -6 10 -13 10 -7 0 -19 9 -27 19 -7 11 -17 18 -21 15 -4 -2
-15 -1 -24 2 -13 6 -14 9 -3 16 9 7 5 8 -14 5 -20 -3 -25 0 -20 11 3 10 1 13
-6 8 -8 -4 -12 0 -12 11 0 15 -2 16 -10 3 -8 -12 -10 -12 -10 -1 0 8 -3 11 -7
8 -10 -10 -34 14 -26 27 3 6 3 8 -2 4 -4 -4 -15 -2 -23 5 -13 10 -14 9 -8 -3
4 -8 -1 -4 -12 9 -13 16 -25 22 -36 18 -10 -4 -15 -3 -11 3 7 12 -35 30 -50
22 -5 -3 -3 3 5 14 8 10 10 16 5 11 -4 -4 -18 1 -29 10 -20 17 -20 17 -6 -1
14 -18 14 -18 -7 -6 -12 8 -19 18 -16 24 4 5 -3 7 -15 4 -12 -4 -20 -2 -17 2
3 5 -4 14 -15 20 -11 6 -20 7 -20 3 0 -4 -5 -1 -10 7 -7 11 -10 11 -10 2 0
-10 -5 -10 -21 -1 -17 8 -20 8 -14 -1 6 -9 -4 -11 -38 -8 -38 4 -44 2 -39 -11
5 -14 3 -14 -10 -3 -10 8 -18 9 -22 3 -4 -5 -24 -9 -46 -8 -22 2 -41 -1 -42
-5 -2 -5 -13 -10 -26 -13 -14 -2 -20 0 -16 7 4 6 1 9 -7 6 -8 -3 -13 -10 -12
-16 3 -11 -15 -11 -34 1 -7 5 -13 4 -13 -1 0 -5 -20 -8 -45 -7 -25 0 -45 -2
-45 -6 0 -4 -10 -5 -22 -2 -19 4 -20 3 -8 -6 9 -7 10 -11 3 -11 -6 0 -15 5
-19 11 -5 8 -8 8 -13 0 -4 -6 -17 -13 -30 -16 -12 -2 -19 0 -16 6 4 5 11 6 17
3 7 -4 8 -2 4 4 -8 13 -36 5 -36 -10 0 -6 -9 -8 -20 -5 -11 3 -20 2 -20 -2 0
-4 -14 -5 -31 -3 -20 3 -34 0 -40 -9 -7 -12 -9 -12 -9 0 0 11 -3 11 -17 0 -11
-10 -14 -10 -9 -1 4 6 2 12 -3 12 -6 0 -11 -4 -11 -10 0 -5 -7 -10 -16 -10 -9
0 -12 5 -8 12 4 7 3 8 -4 4 -7 -4 -12 -15 -12 -24 0 -15 -2 -15 -10 -2 -8 12
-13 13 -29 3 -15 -10 -20 -10 -24 0 -3 9 -8 9 -20 -2 -10 -7 -17 -10 -17 -6 0
4 -8 1 -17 -6 -9 -8 -14 -9 -10 -3 4 7 0 14 -8 17 -10 4 -12 1 -8 -10 5 -12 3
-14 -8 -7 -8 4 -23 10 -34 11 -17 3 -18 1 -5 -8 12 -9 11 -10 -7 -6 -13 3 -23
2 -23 -2 0 -4 -17 -9 -37 -10 -49 -2 -65 -5 -80 -14 -6 -4 -15 -2 -19 4 -5 8
-3 9 6 4 9 -5 11 -4 6 4 -6 8 -12 9 -20 2 -7 -6 -17 -7 -21 -3 -5 4 -5 1 -1
-6 4 -7 12 -9 18 -6 7 4 8 2 4 -4 -4 -6 -13 -9 -21 -5 -9 3 -15 -1 -15 -8 0
-8 -9 1 -20 19 -11 17 -28 32 -37 32 -15 0 -16 2 -3 10 11 7 11 10 2 10 -8 0
-10 5 -6 12 5 7 2 9 -9 5 -11 -4 -14 -2 -10 9 3 7 0 14 -5 14 -6 0 -18 18 -28
40 -10 22 -22 40 -27 40 -4 0 -5 5 -2 10 3 6 1 10 -5 10 -6 0 -8 5 -4 12 4 6
3 8 -3 5 -6 -4 -17 1 -24 10 -12 14 -12 16 1 8 12 -6 13 -5 3 5 -7 8 -32 14
-57 15 -35 1 -43 -2 -38 -14z m37 -179 c-4 -12 -3 -13 10 -2 13 11 14 10 9 -4
-3 -9 -1 -16 5 -16 6 0 11 -5 11 -11 0 -7 8 -18 18 -26 11 -10 12 -12 2 -8
-10 4 -9 2 3 -8 9 -8 17 -22 17 -31 0 -11 4 -15 13 -10 7 5 7 2 -2 -10 -8 -9
-10 -16 -5 -15 25 4 36 -2 32 -19 -4 -13 1 -18 15 -19 11 -1 23 -6 26 -11 9
-12 77 -8 95 7 11 9 16 9 22 0 5 -8 3 -9 -6 -4 -9 6 -11 4 -5 -5 6 -10 13 -8
28 11 13 15 18 17 14 7 -3 -10 -2 -20 3 -23 6 -4 10 1 10 9 0 9 5 17 10 17 6
1 16 2 23 3 6 1 18 -3 26 -8 11 -8 13 -8 8 1 -5 8 7 11 43 10 27 0 53 3 57 8
5 4 2 5 -6 0 -8 -5 -12 -4 -8 1 3 6 24 10 46 9 23 -1 41 3 41 7 0 4 5 8 11 8
5 0 7 -5 3 -11 -3 -6 8 -3 26 6 18 9 29 12 26 6 -9 -14 0 -14 26 0 16 9 19 8
13 -3 -6 -10 -5 -11 5 -1 11 10 17 10 29 1 9 -7 13 -8 9 -4 -4 5 -3 15 3 23
14 16 43 -2 32 -21 -3 -6 4 -2 16 8 12 11 38 21 57 21 19 1 37 5 40 8 3 3 17
2 30 -3 15 -6 26 -5 30 2 4 7 3 8 -4 4 -7 -4 -12 -3 -12 3 0 5 9 9 19 8 11 0
18 -4 16 -7 -2 -4 2 -7 10 -7 8 0 12 4 10 8 -3 3 4 9 15 12 11 3 18 1 15 -3
-3 -5 -1 -11 5 -15 5 -3 10 1 10 9 0 11 9 14 35 12 19 -2 35 1 35 6 0 6 6 6
14 -1 11 -9 15 -9 19 1 4 10 8 10 17 -2 10 -12 11 -11 6 9 -4 18 -2 21 7 12
12 -12 41 -15 33 -3 -2 4 6 8 19 8 13 0 21 -4 19 -8 -3 -4 0 -8 5 -8 6 0 11 5
11 11 0 6 9 9 20 6 11 -3 23 -1 26 4 3 5 10 9 15 9 6 0 8 -4 5 -8 -3 -5 1 -9
9 -9 8 0 12 4 9 9 -3 4 -2 8 3 9 4 0 16 2 26 4 9 2 17 -2 17 -8 0 -7 5 -5 10
3 9 13 10 13 10 0 0 -12 2 -12 9 -2 7 11 9 11 14 -2 4 -10 13 -13 23 -9 12 4
15 3 10 -5 -4 -7 -1 -12 8 -12 9 0 16 -5 16 -11 0 -6 9 -9 20 -6 11 3 23 0 27
-5 3 -7 1 -8 -5 -4 -7 4 -12 2 -12 -3 0 -6 5 -11 11 -11 5 0 7 -6 3 -12 -5
-10 -4 -10 6 -1 7 6 19 9 27 6 12 -5 12 -7 1 -15 -9 -7 -7 -8 10 -5 12 3 20 1
16 -4 -3 -5 0 -9 7 -9 7 0 26 -12 43 -27 17 -16 24 -20 17 -11 -12 16 -11 17
18 2 34 -17 41 -26 14 -18 -10 3 -4 -3 12 -12 17 -10 36 -17 44 -15 7 1 10 -2
6 -8 -3 -7 3 -11 15 -11 12 0 18 -4 15 -10 -3 -5 1 -10 10 -10 9 0 13 -5 9
-11 -4 -7 2 -9 17 -7 17 2 27 -4 36 -22 8 -15 13 -19 14 -10 0 10 2 11 6 2 2
-6 9 -10 14 -6 5 3 9 -1 9 -9 0 -16 27 -30 41 -21 5 3 12 -2 15 -10 3 -9 10
-13 15 -10 5 3 9 0 9 -6 0 -6 4 -8 10 -5 6 3 7 -1 4 -10 -5 -11 -2 -14 12 -8
11 4 15 3 11 -4 -4 -6 1 -10 11 -9 9 0 16 -5 14 -12 -1 -8 2 -11 8 -7 6 4 17
-1 24 -11 13 -17 26 -22 78 -27 15 -2 30 -6 34 -10 4 -3 -3 -5 -14 -2 -12 2
-24 1 -26 -3 -3 -4 11 -8 30 -8 19 0 34 3 34 7 0 4 7 10 16 13 14 5 15 4 4 -9
-7 -9 -10 -18 -6 -22 3 -3 6 -1 6 5 0 7 7 12 16 12 8 0 12 -4 9 -10 -3 -6 1
-7 9 -4 9 3 13 11 9 18 -4 8 -2 8 7 -1 7 -6 19 -9 28 -6 10 4 13 2 8 -5 -7
-12 13 -10 48 4 15 6 17 4 11 -6 -6 -9 -4 -11 6 -5 20 13 53 14 61 2 4 -7 12
-6 22 2 9 8 16 9 16 4 0 -5 9 -9 20 -10 11 -1 20 3 20 8 0 6 7 6 18 1 20 -10
54 -8 72 3 8 5 11 4 7 -2 -5 -7 10 -10 44 -9 27 2 52 -1 55 -6 3 -5 12 -4 20
3 11 9 14 8 14 -2 0 -11 2 -11 9 0 8 13 12 13 27 0 10 -8 15 -9 12 -4 -10 17
42 12 52 -5 5 -8 10 -10 10 -4 0 7 11 11 24 10 13 0 22 -5 19 -11 -2 -5 3 -1
13 10 16 20 16 20 11 -5 -6 -23 -5 -24 8 -7 11 16 17 17 35 7 15 -8 20 -8 16
-1 -8 13 29 10 41 -4 5 -4 3 -5 -4 -1 -6 3 -14 2 -18 -3 -3 -6 4 -8 17 -5 13
2 38 5 56 6 17 1 32 6 33 12 0 6 4 2 9 -9 5 -11 9 -14 9 -6 1 11 4 11 16 1 10
-8 15 -9 15 -2 0 6 6 10 13 8 46 -15 68 -16 61 -4 -5 10 -4 10 6 1 10 -9 17
-10 27 -2 7 7 13 7 13 2 0 -11 41 -10 60 2 8 5 11 4 7 -2 -3 -5 17 -9 51 -8
31 1 60 -3 64 -8 4 -7 12 -6 22 2 13 11 16 11 16 0 0 -12 2 -12 9 -1 4 8 12
14 16 14 4 0 12 -6 16 -14 7 -10 9 -10 9 2 1 11 3 11 11 -3 9 -16 13 -17 27
-5 18 15 22 15 60 3 15 -5 21 -13 17 -23 -5 -13 -3 -13 12 -1 13 11 15 11 9 1
-5 -9 -1 -15 13 -19 19 -5 26 -21 22 -46 -1 -5 3 -5 10 -2 6 4 19 -2 30 -14
11 -12 25 -21 32 -21 7 0 6 -4 -3 -10 -12 -8 -11 -10 8 -10 12 0 22 -5 22 -11
0 -5 -6 -7 -12 -3 -9 5 -9 2 1 -9 15 -18 26 -23 16 -7 -3 6 -1 10 4 10 6 0 11
-7 11 -15 0 -8 7 -15 16 -15 14 0 15 -2 3 -17 -10 -12 -10 -15 -1 -9 12 7 46
-17 36 -27 -3 -3 0 -8 7 -13 8 -4 10 -3 5 4 -10 17 3 15 20 -2 11 -11 11 -16
1 -20 -6 -4 -2 -4 10 -2 12 2 22 1 21 -3 -2 -19 3 -31 12 -26 6 3 10 2 10 -3
0 -5 10 -14 23 -21 12 -6 14 -9 4 -6 -10 3 -15 1 -12 -5 3 -6 12 -10 19 -10 7
0 21 -11 32 -24 10 -14 21 -23 26 -20 4 3 5 -3 1 -12 -5 -14 -3 -16 11 -11 9
4 15 3 12 -1 -3 -5 13 -24 35 -43 23 -19 45 -45 50 -58 6 -15 15 -21 25 -17 9
3 12 2 9 -4 -3 -6 1 -13 9 -16 9 -3 16 -12 16 -20 0 -8 6 -13 13 -11 6 1 11
-6 11 -15 -1 -10 2 -18 7 -18 5 0 9 6 10 13 0 6 7 -1 14 -18 8 -16 14 -26 15
-21 0 5 7 3 15 -4 9 -7 14 -19 11 -26 -3 -8 0 -11 8 -8 8 3 17 0 22 -7 4 -8 3
-10 -4 -5 -7 4 -12 2 -12 -4 0 -6 -4 -9 -8 -6 -12 7 -2 -84 11 -109 9 -19 9
-19 -8 -5 -13 10 -16 11 -11 2 14 -23 13 -93 -1 -107 -7 -8 -9 -15 -3 -17 6
-2 12 -13 15 -26 2 -12 0 -20 -5 -17 -5 3 -11 1 -15 -5 -3 -5 -1 -10 4 -10 6
0 11 -7 11 -15 0 -8 -6 -15 -12 -15 -10 0 -10 -2 0 -9 8 -4 14 -12 14 -16 0
-4 -6 -12 -14 -16 -10 -7 -10 -9 0 -9 9 0 10 -5 3 -17 -6 -11 -6 -24 0 -35 5
-10 6 -18 1 -18 -4 0 -8 -9 -8 -20 0 -11 4 -20 9 -20 5 0 4 -7 -3 -15 -10 -12
-10 -15 0 -15 9 0 9 -4 2 -13 -7 -8 -7 -18 -2 -27 5 -8 4 -22 -2 -33 -7 -15
-7 -22 3 -28 12 -7 12 -9 0 -9 -9 0 -11 -8 -7 -26 5 -18 3 -24 -5 -19 -8 6 -8
2 0 -13 14 -26 14 -35 0 -26 -8 4 -8 1 -1 -13 14 -25 10 -55 -8 -70 -13 -10
-12 -14 5 -34 11 -12 14 -19 8 -15 -7 4 -13 4 -14 -1 0 -4 -2 -16 -4 -26 -2
-12 1 -17 9 -14 14 6 15 -28 1 -40 -4 -5 -5 -3 -1 4 3 6 2 14 -3 17 -10 7 -9
-9 4 -38 5 -12 3 -21 -6 -27 -11 -6 -11 -9 -1 -9 9 0 10 -5 2 -19 -7 -13 -7
-22 0 -26 7 -4 6 -13 -1 -27 -8 -15 -8 -19 0 -14 6 4 11 1 11 -6 0 -8 9 -20
20 -28 15 -11 17 -17 7 -29 -9 -12 -9 -13 1 -7 8 5 12 1 12 -11 0 -15 2 -16
10 -3 8 12 10 10 10 -9 0 -13 3 -21 7 -18 10 10 32 -25 33 -53 0 -20 2 -22 10
-10 8 13 10 12 10 -2 0 -10 6 -18 13 -18 8 0 7 -4 -3 -10 -12 -8 -10 -10 8
-10 13 0 21 -4 18 -9 -3 -4 3 -19 15 -32 11 -12 17 -29 14 -36 -2 -8 0 -11 5
-8 6 3 10 1 10 -5 0 -6 5 -8 11 -4 8 5 10 -1 7 -19 -4 -18 -1 -24 9 -20 11 5
18 -8 14 -29 0 -4 7 -4 17 -1 15 6 16 5 2 -12 -9 -11 -10 -16 -2 -11 6 4 12 2
12 -3 0 -6 8 -11 18 -12 10 0 12 -3 4 -6 -9 -3 -7 -9 6 -21 10 -10 11 -12 3
-7 -10 6 -8 0 4 -16 11 -15 23 -25 28 -22 4 2 7 -7 7 -21 0 -13 6 -26 13 -29
10 -4 10 -7 0 -18 -7 -7 -13 -28 -13 -47 0 -18 -4 -31 -8 -28 -10 6 -9 -35 1
-51 6 -9 3 -11 -10 -6 -10 3 -15 3 -11 -2 4 -4 2 -15 -5 -23 -9 -13 -9 -14 1
-8 6 4 12 3 12 -3 0 -5 -5 -13 -11 -16 -6 -4 -8 -22 -6 -41 3 -19 1 -31 -4
-28 -5 3 -9 -2 -9 -11 0 -9 -4 -14 -9 -11 -5 3 -8 -2 -7 -11 0 -9 -5 -18 -13
-21 -8 -2 -11 0 -7 6 7 12 -20 10 -31 -3 -4 -4 -2 -5 6 0 10 6 12 4 7 -4 -6
-9 -13 -8 -29 6 -11 10 -17 13 -14 7 8 -14 -20 -27 -28 -14 -3 5 -13 6 -22 3
-12 -5 -14 -3 -8 8 6 9 0 8 -19 -5 -16 -10 -26 -14 -22 -8 3 5 -1 13 -10 16
-8 3 -13 2 -10 -3 3 -5 -1 -11 -9 -15 -8 -3 -17 -1 -20 4 -3 5 -13 6 -22 3
-12 -5 -14 -3 -8 8 6 9 0 8 -19 -5 -16 -10 -26 -14 -22 -8 3 5 -1 13 -10 16
-8 3 -13 2 -10 -3 3 -5 -1 -11 -9 -15 -8 -3 -17 0 -21 5 -3 6 -15 9 -25 6 -10
-3 -26 1 -36 9 -10 7 -13 14 -6 14 7 0 10 6 7 14 -3 8 -1 17 5 21 6 3 11 11
11 17 0 6 -7 5 -17 -3 -16 -12 -17 -12 -6 2 7 9 10 19 6 23 -4 4 0 4 9 1 9 -4
19 -1 24 6 4 8 3 10 -4 5 -7 -4 -12 -3 -12 3 0 5 5 13 11 17 8 4 7 9 -2 15
-11 7 -10 9 5 9 16 0 17 2 5 17 -12 14 -12 16 2 11 12 -5 16 2 17 30 2 19 5
39 8 44 3 4 0 8 -6 8 -7 0 -9 7 -6 15 4 10 1 15 -8 13 -8 -2 -25 8 -40 22 -43
42 -92 86 -84 76 18 -22 6 -25 -16 -4 -13 13 -21 27 -18 32 3 5 0 6 -6 2 -6
-3 -13 -2 -17 4 -4 6 -11 7 -17 4 -7 -5 -9 -1 -5 9 4 10 2 14 -6 11 -7 -2 -21
3 -32 12 -11 8 -15 13 -8 10 6 -4 14 -3 17 2 2 4 -7 9 -21 10 -14 1 -33 11
-43 22 -10 11 -23 20 -30 20 -7 0 -10 6 -7 14 4 9 -2 12 -18 10 -18 -1 -22 2
-18 14 5 11 2 14 -10 9 -9 -3 -17 -2 -17 3 0 6 -8 10 -17 10 -15 0 -15 2 -4 9
11 7 9 10 -10 13 -13 2 -23 9 -22 15 2 7 -4 10 -13 6 -10 -4 -17 2 -21 17 -4
16 -8 18 -14 8 -7 -10 -9 -8 -9 6 0 11 -3 16 -6 13 -11 -10 -46 13 -41 27 4 9
-3 12 -19 10 -13 -1 -22 2 -19 6 3 5 -4 11 -15 15 -11 3 -20 11 -20 17 0 6 -3
9 -6 5 -8 -8 -34 18 -34 35 0 10 -3 9 -10 -2 -7 -12 -10 -12 -10 -1 0 7 -6 11
-14 8 -11 -4 -13 -1 -9 11 3 9 3 14 -1 10 -5 -4 -19 4 -33 18 -28 28 -42 32
-22 7 13 -16 12 -17 -3 -4 -10 7 -18 20 -18 28 0 8 -4 11 -10 8 -6 -3 -10 -1
-10 6 0 7 -3 10 -6 6 -6 -5 -15 0 -49 31 -7 6 -19 12 -25 12 -7 0 -10 7 -7 14
4 11 1 13 -10 9 -11 -4 -14 -2 -9 5 4 8 2 10 -8 6 -9 -3 -19 3 -26 16 -6 11
-15 18 -20 15 -5 -3 -13 3 -19 12 -6 10 -11 15 -11 11 0 -4 -10 3 -23 15 -13
12 -21 27 -19 32 3 6 1 7 -3 2 -5 -4 -18 1 -29 10 -20 17 -20 17 -6 -2 15 -19
15 -19 -12 0 -14 11 -25 22 -23 24 2 2 -2 9 -8 16 -9 10 -15 10 -26 1 -12 -9
-13 -8 -8 7 5 14 0 19 -23 24 -26 5 -29 8 -18 21 10 12 10 14 1 8 -8 -4 -13
-2 -13 4 0 6 -5 8 -12 4 -8 -5 -7 0 2 11 9 11 10 16 3 11 -9 -5 -13 1 -13 19
0 14 -4 24 -8 21 -4 -2 -8 15 -7 38 0 31 -3 42 -12 39 -17 -7 -17 9 0 26 10
11 9 13 -1 7 -18 -10 -32 34 -19 59 5 11 6 17 2 13 -14 -13 -37 13 -25 27 8 9
6 14 -5 19 -12 4 -14 10 -5 25 8 15 7 22 -4 28 -8 4 -16 19 -18 33 -1 14 -7
28 -13 32 -6 5 -5 8 3 8 8 0 6 7 -7 21 -10 11 -18 32 -16 45 1 14 -2 27 -7 30
-5 3 -5 11 2 19 8 9 5 12 -14 10 -17 -2 -23 1 -20 10 5 13 -40 27 -52 16 -3
-3 -11 -6 -17 -6 -7 0 -11 -9 -9 -19 2 -11 -1 -15 -7 -11 -6 3 -11 1 -11 -5 0
-6 -6 -8 -12 -5 -7 4 -4 -1 6 -9 20 -16 20 -16 0 -17 -18 0 -18 -1 1 -9 11 -5
14 -9 7 -9 -7 -1 -10 -6 -7 -11 4 -6 10 -8 15 -5 4 3 6 -5 2 -17 -3 -14 -1
-19 6 -14 8 5 10 2 6 -8 -3 -9 -10 -14 -14 -11 -5 3 -6 -4 -3 -15 3 -11 10
-20 15 -20 5 0 6 5 2 12 -4 6 -3 8 3 5 6 -4 9 -18 8 -32 -2 -14 0 -25 5 -25 4
0 7 -15 6 -34 -1 -25 2 -32 10 -25 8 6 14 5 17 -5 4 -9 -1 -20 -11 -25 -12 -7
-13 -10 -3 -11 8 0 11 -6 7 -16 -3 -8 -2 -13 3 -10 11 7 29 -42 25 -66 -1 -10
2 -18 7 -18 15 0 10 -13 -15 -42 -12 -15 -26 -25 -30 -21 -3 3 -6 1 -6 -6 0
-7 -3 -10 -7 -8 -11 7 -33 -19 -25 -29 4 -5 -2 -2 -12 6 -17 13 -18 13 -11 1
6 -11 4 -13 -10 -7 -16 6 -16 4 -4 -11 9 -11 10 -14 1 -9 -7 4 -14 1 -18 -8
-3 -8 -13 -17 -21 -20 -13 -6 -14 -4 -3 11 7 10 1 5 -14 -10 -14 -16 -35 -29
-46 -30 -15 -1 -17 -4 -7 -16 9 -12 9 -13 0 -7 -8 4 -13 2 -13 -5 0 -7 -3 -9
-7 -6 -3 4 -17 -2 -29 -14 -24 -23 -74 -33 -74 -15 0 7 -3 7 -8 1 -4 -5 -16
-11 -27 -13 -11 -2 -27 -6 -35 -9 -29 -12 -44 -12 -59 0 -10 8 -13 8 -8 1 4
-8 -5 -13 -29 -16 -19 -2 -37 -1 -40 4 -3 4 -11 5 -20 1 -12 -4 -12 -8 -2 -22
8 -11 5 -10 -10 3 -19 17 -22 17 -22 3 0 -10 -4 -17 -10 -17 -5 0 -7 8 -4 18
5 15 4 15 -8 1 -7 -9 -19 -14 -26 -11 -7 2 -20 1 -30 -3 -32 -14 -53 -12 -63
7 -6 12 -6 18 0 18 6 0 7 7 4 17 -5 12 -3 14 8 8 12 -8 12 -6 0 8 -9 12 -10
17 -2 17 7 0 10 4 6 9 -3 5 0 13 6 17 7 4 9 3 5 -4 -3 -6 -2 -13 3 -16 10 -7
9 13 -2 30 -4 7 0 17 8 24 8 7 15 18 15 24 0 6 -5 4 -11 -4 -9 -13 -10 -13 -6
0 2 8 12 14 21 14 9 -1 16 2 16 7 0 5 -6 9 -12 10 -10 0 -10 2 -1 5 7 3 9 12
6 20 -3 8 3 24 13 36 11 12 14 18 7 15 -6 -4 -15 -2 -19 4 -4 7 -3 9 2 6 6 -3
16 -2 24 4 12 7 12 9 -4 9 -14 0 -16 3 -7 13 15 19 1 30 -17 14 -13 -9 -14 -9
-8 1 4 7 2 12 -4 12 -6 0 -8 5 -4 13 5 7 0 6 -11 -3 -10 -8 -16 -10 -12 -4 4
7 0 14 -8 17 -10 4 -12 1 -8 -11 6 -15 5 -15 -10 -3 -15 12 -17 11 -17 -3 0
-10 -4 -15 -9 -12 -5 3 -12 -1 -15 -10 -4 -9 -2 -13 5 -8 8 4 7 0 0 -15 -7
-11 -15 -21 -20 -21 -5 0 -7 -11 -6 -25 2 -14 -2 -28 -7 -32 -7 -4 -8 -1 -3 7
5 8 4 11 -2 7 -5 -3 -9 -20 -8 -36 1 -18 -2 -28 -8 -24 -6 4 -8 0 -4 -10 3 -9
2 -19 -4 -22 -5 -4 -7 -10 -4 -15 3 -4 -1 -10 -9 -13 -9 -4 -12 -14 -9 -28 4
-15 3 -20 -5 -15 -8 5 -12 0 -12 -13 0 -11 -5 -23 -10 -26 -8 -5 -7 -11 1 -21
9 -11 8 -14 -6 -14 -14 0 -15 -3 -5 -15 10 -12 8 -13 -10 -10 -19 4 -20 2 -8
-12 9 -12 9 -15 1 -9 -7 4 -13 3 -13 -1 0 -5 -7 -18 -15 -29 -15 -19 -15 -19
-9 1 7 20 7 20 -9 0 -8 -11 -13 -24 -10 -29 4 -5 -6 -6 -23 -2 -23 5 -26 4
-14 -4 10 -8 11 -13 4 -16 -6 -3 -20 -12 -30 -20 -10 -9 -13 -12 -5 -8 9 5 12
3 7 -4 -4 -7 -16 -12 -27 -12 -11 0 -19 -7 -19 -16 0 -10 -6 -14 -15 -10 -8 3
-14 2 -14 -2 3 -21 -3 -31 -16 -26 -11 5 -13 2 -9 -10 5 -12 2 -15 -10 -10
-10 4 -16 1 -16 -9 0 -9 -5 -19 -12 -23 -7 -5 -9 -2 -4 7 4 8 -1 3 -12 -10
-10 -13 -24 -21 -30 -17 -7 4 -9 -1 -7 -14 2 -11 0 -18 -5 -15 -5 3 -13 -2
-18 -11 -5 -9 -12 -15 -15 -15 -4 1 -15 1 -24 1 -14 0 -15 -2 -5 -9 11 -7 11
-9 -2 -14 -9 -4 -16 -1 -16 6 0 7 -3 8 -8 2 -9 -12 -54 -16 -46 -4 6 10 -7 12
-50 9 -21 -1 -26 2 -20 12 6 11 5 11 -8 0 -11 -9 -18 -10 -23 -2 -4 7 -12 7
-25 0 -11 -6 -21 -6 -24 -1 -3 5 -15 7 -26 4 -15 -4 -20 0 -21 13 0 15 -2 16
-7 4 -4 -8 -14 -14 -22 -14 -8 1 -21 2 -28 3 -7 0 -10 6 -7 11 3 6 2 10 -4 10
-5 0 -12 -6 -14 -12 -4 -10 -7 -10 -14 -1 -5 7 -17 12 -28 12 -88 -2 -154 4
-149 13 4 6 -1 6 -13 -1 -15 -7 -23 -7 -32 2 -10 9 -11 8 -5 -7 6 -16 4 -18
-10 -13 -13 5 -17 3 -13 -7 4 -10 1 -13 -9 -9 -7 3 -14 0 -14 -5 0 -6 -9 -9
-19 -7 -14 2 -18 -1 -15 -10 4 -8 -3 -15 -18 -17 -13 -2 -22 -9 -20 -16 1 -8
-2 -11 -8 -7 -5 3 -10 1 -10 -5 0 -6 -4 -9 -9 -6 -4 3 -16 -3 -26 -14 -15 -16
-21 -18 -33 -7 -10 7 -13 8 -9 1 4 -7 -1 -14 -12 -17 -15 -3 -18 -1 -14 11 4
10 2 13 -5 8 -7 -4 -12 -2 -12 3 0 6 6 11 13 11 9 0 9 2 -1 9 -7 4 -14 21 -16
37 -2 16 -5 29 -6 29 -1 0 -3 8 -5 18 -2 9 0 15 4 13 4 -3 7 4 7 14 0 10 -5
16 -10 13 -5 -4 -7 7 -3 26 5 23 3 30 -5 25 -7 -4 -8 -3 -4 5 4 6 12 9 17 6 5
-4 9 2 9 12 0 15 2 16 10 3 8 -12 10 -12 10 -1 0 8 3 12 6 8 3 -3 16 3 27 14
12 11 30 18 42 17 13 -2 19 2 17 11 -3 12 -1 12 14 0 15 -12 17 -12 9 0 -6 11
-4 13 9 8 10 -4 15 -3 11 3 -6 10 8 14 34 10 8 -1 12 4 8 14 -4 10 -1 13 9 9
8 -3 21 0 29 7 8 6 19 9 24 6 5 -4 13 -1 17 5 5 8 3 9 -6 4 -9 -5 -11 -4 -6 4
4 6 12 8 18 5 6 -4 14 0 19 7 8 14 12 15 44 18 8 0 22 9 32 20 10 10 26 17 36
16 9 -2 17 1 17 6 0 5 5 9 11 9 5 0 7 -6 3 -12 -4 -7 3 -3 15 10 12 12 19 27
16 32 -4 6 -3 10 2 9 23 -4 30 3 27 27 -2 19 1 24 12 20 9 -3 12 -1 9 4 -3 6
-2 10 3 10 5 0 8 14 7 30 -2 24 0 28 11 19 10 -8 12 -6 9 10 -2 12 0 21 5 21
4 0 7 8 5 18 -1 9 6 25 16 35 11 10 16 24 12 34 -4 11 -3 14 5 9 11 -6 17 5
13 27 0 4 4 7 10 7 5 0 8 4 5 9 -9 14 5 42 18 34 6 -3 8 -3 4 2 -4 4 -2 15 5
23 10 13 9 14 -3 7 -12 -7 -13 -6 -3 7 7 8 9 19 5 23 -4 5 0 6 8 3 11 -4 16 0
16 13 0 22 -12 25 -19 7 -4 -10 -6 -10 -6 -1 -1 6 4 15 10 18 6 5 4 12 -8 22
-10 8 -12 12 -6 8 9 -4 11 -1 7 10 -5 12 -10 13 -20 4 -10 -8 -12 -6 -9 10 2
12 -1 21 -6 21 -14 0 -39 26 -32 34 3 3 -2 8 -11 12 -9 3 -16 14 -16 23 0 14
-2 14 -10 1 -8 -12 -10 -10 -10 8 0 15 -4 21 -12 16 -8 -5 -9 -2 -5 9 4 10 2
16 -6 14 -7 -1 -11 4 -9 11 1 6 -5 12 -13 12 -8 0 -15 5 -15 11 0 5 -4 7 -10
4 -5 -3 -7 0 -4 9 3 9 -3 19 -16 26 -11 6 -18 15 -15 21 4 5 -1 9 -10 9 -9 0
-13 5 -10 10 3 6 1 10 -5 10 -6 0 -8 4 -5 10 3 6 -1 7 -9 4 -12 -4 -16 0 -16
16 0 16 -4 20 -16 16 -8 -3 -12 -2 -9 4 3 6 1 10 -4 10 -6 0 -11 6 -11 13 0
28 -37 49 -77 44 -22 -2 -37 -9 -36 -15 3 -11 -10 -16 -29 -13 -4 0 -5 -6 -2
-14 4 -8 11 -12 18 -10 6 3 4 0 -5 -6 -16 -12 -16 -14 0 -28 9 -9 11 -12 4 -7
-10 6 -12 4 -7 -8 3 -9 13 -16 21 -16 8 0 11 -4 8 -10 -3 -5 1 -10 10 -10 9 0
14 -4 11 -9 -3 -5 1 -11 9 -15 8 -3 15 -13 15 -21 0 -9 5 -13 10 -10 6 3 10 1
10 -6 0 -7 13 -24 29 -38 15 -14 33 -36 40 -48 6 -13 17 -22 23 -20 7 1 12 -6
13 -15 0 -18 38 -58 54 -58 5 0 8 -9 6 -20 -2 -11 -1 -19 3 -19 22 3 32 -3 32
-21 0 -12 7 -20 18 -21 14 0 14 -2 -3 -9 -14 -6 -15 -9 -5 -10 12 0 11 -3 -3
-11 -15 -9 -16 -13 -5 -27 10 -12 10 -14 1 -8 -12 7 -18 -5 -14 -28 1 -5 -5
-6 -14 -2 -13 5 -14 2 -4 -15 7 -13 7 -19 1 -15 -6 3 -12 -4 -14 -16 -4 -30
-56 -47 -73 -25 -7 9 -15 14 -18 10 -4 -3 -7 0 -7 8 0 11 -2 11 -10 -1 -8 -13
-10 -12 -10 3 0 10 -5 15 -10 12 -13 -8 -41 20 -32 31 4 5 -2 2 -12 -6 -15
-12 -20 -12 -23 -2 -3 6 -10 9 -16 5 -6 -4 -8 0 -4 9 3 9 0 15 -6 15 -35 -1
-48 4 -41 16 6 9 4 9 -8 -1 -13 -10 -18 -10 -24 -1 -5 8 -3 9 6 4 9 -6 11 -4
6 4 -5 7 -14 10 -22 7 -13 -5 -19 6 -15 27 1 5 -3 6 -9 2 -6 -3 -8 -11 -5 -16
3 -5 -1 -6 -9 -3 -9 3 -16 12 -16 19 0 8 -8 11 -20 8 -11 -3 -20 -1 -20 3 0 5
-9 15 -21 22 -13 9 -18 9 -14 2 7 -12 -35 8 -45 21 -3 4 -14 9 -25 11 -11 2
-19 9 -18 15 1 6 -6 9 -17 6 -11 -3 -20 0 -20 6 0 6 -7 8 -17 4 -11 -4 -14 -3
-9 5 4 7 3 12 -2 12 -16 0 -52 37 -52 54 0 11 -5 14 -12 10 -8 -5 -9 -2 -5 10
4 11 3 15 -4 11 -6 -4 -13 2 -16 14 -3 12 -11 21 -19 21 -8 0 -11 6 -8 15 4 9
0 15 -9 15 -16 0 -30 26 -22 41 4 5 0 6 -8 3 -8 -3 -18 0 -23 7 -4 7 -3 10 4
5 6 -3 14 -2 17 4 4 6 3 10 -2 9 -23 -4 -35 2 -29 17 3 9 2 12 -5 9 -6 -4 -13
2 -16 13 -3 11 -12 23 -20 26 -8 3 -11 11 -7 17 4 7 3 9 -3 6 -6 -4 -13 0 -17
8 -3 8 -11 15 -18 15 -9 0 -8 -3 2 -10 8 -5 11 -10 7 -10 -4 0 -18 7 -31 15
-22 14 -25 14 -40 0 -9 -9 -16 -12 -16 -5 0 6 -5 8 -10 5 -19 -12 -91 -14 -84
-3 4 7 0 7 -13 0 -23 -13 -125 -18 -141 -8 -7 4 -12 2 -12 -5 0 -8 -5 -7 -17
2 -9 8 -14 9 -10 3 5 -8 -3 -11 -26 -9 -48 4 -67 14 -59 33 5 15 4 15 -11 3
-14 -11 -17 -11 -18 0 -1 8 -1 18 0 22 1 5 -3 6 -8 2 -16 -9 -63 26 -57 42 3
8 2 11 -3 8 -15 -9 -60 16 -67 38 -5 16 -8 17 -15 6 -7 -12 -9 -11 -10 1 -1 8
-1 19 0 23 1 5 -3 6 -8 3 -5 -4 -17 1 -25 10 -9 8 -16 13 -16 10 0 -3 -8 2
-18 12 -11 9 -17 20 -15 24 2 4 -2 5 -10 2 -8 -3 -18 0 -22 5 -3 6 -11 9 -16
6 -5 -4 -9 1 -9 9 0 9 -6 16 -14 16 -8 0 -18 5 -22 12 -5 7 -3 8 6 3 9 -5 11
-4 6 3 -4 7 -14 12 -22 12 -8 0 -14 5 -14 10 0 6 -6 10 -14 10 -8 0 -28 11
-44 25 -16 13 -33 21 -38 17 -4 -4 -2 1 6 11 7 10 9 17 4 16 -24 -4 -58 2 -47
9 8 5 9 13 3 22 -7 11 -10 12 -10 2 0 -7 -5 -10 -10 -7 -6 4 -7 12 -3 18 4 7
-2 5 -12 -3 -17 -14 -18 -13 -13 6 4 17 1 21 -18 18 -16 -1 -21 2 -17 12 5 13
-14 20 -41 15 -5 -1 -6 5 -3 13 4 9 -3 16 -19 20 -14 4 -22 11 -19 16 3 6 -1
10 -9 10 -9 0 -16 5 -16 10 0 6 -7 10 -15 10 -8 0 -15 5 -15 10 0 6 -7 10 -16
10 -8 0 -12 5 -9 10 3 6 -3 10 -13 10 -11 0 -23 7 -26 16 -3 9 -13 14 -21 11
-8 -4 -16 2 -20 14 -4 10 -11 19 -17 19 -6 0 -8 10 -4 26 5 18 3 24 -5 19 -8
-5 -8 -1 1 15 8 14 8 20 1 16 -7 -5 -9 3 -5 23 4 18 2 37 -5 45 -10 11 -8 17
6 25 16 9 16 10 1 11 -21 0 -32 16 -17 26 8 5 9 3 4 -7 -7 -12 -5 -12 6 -1 12
11 12 14 -1 22 -10 7 -11 10 -2 10 6 0 12 5 12 11 0 5 -6 7 -12 3 -7 -4 -5 2
6 14 10 12 24 18 30 14 16 -10 96 -9 96 2 0 6 5 5 11 -1 12 -12 42 -6 34 7 -3
5 4 6 15 3 11 -3 28 1 37 8 14 12 16 12 8 0 -6 -10 -4 -12 4 -7 7 5 10 15 6
24 -3 9 -3 13 1 10 10 -11 45 12 38 24 -5 7 -2 9 8 6 8 -4 15 0 15 8 0 7 -5
10 -10 7 -6 -3 -7 -1 -3 5 4 7 14 12 22 12 8 0 12 5 9 10 -3 6 -2 10 4 10 5 0
13 10 16 21 6 17 9 19 16 8 7 -11 9 -9 10 6 1 11 1 24 0 28 -1 5 3 6 9 2 5 -3
10 -2 10 4 0 6 13 9 30 7 17 -2 30 0 30 4 0 9 44 5 61 -6 8 -4 9 -3 5 4 -10
16 7 15 23 0 9 -9 12 -9 7 -1 -9 16 15 22 38 11 13 -7 16 -7 12 1 -11 18 6 13
20 -6 12 -15 13 -16 8 -2 -6 20 11 34 22 18 5 -8 3 -9 -6 -4 -8 5 -11 4 -7 -3
8 -12 47 -4 47 9 0 14 24 6 32 -11 5 -12 7 -11 7 4 1 15 4 16 16 6 9 -7 15 -8
15 -2 0 6 11 9 25 7 14 -1 25 2 25 6 0 5 7 9 16 9 8 0 12 5 9 10 -3 6 3 10 15
10 12 0 18 5 15 10 -3 6 -1 10 5 10 6 0 8 5 4 13 -5 8 -2 8 9 -2 15 -12 17
-11 17 3 0 9 6 16 13 16 7 0 26 12 43 28 17 15 23 22 15 16 -35 -24 -44 -25
-16 0 17 14 39 25 49 26 11 0 16 3 13 6 -10 10 34 45 46 37 6 -4 8 0 5 9 -5
11 0 14 18 10 17 -3 23 -9 19 -20z m956 -1329 c13 -16 12 -17 -3 -4 -17 13
-22 21 -14 21 2 0 10 -8 17 -17z m119 -617 c0 -3 -4 -8 -10 -11 -5 -3 -10 -1
-10 4 0 6 5 11 10 11 6 0 10 -2 10 -4z m-250 -22 c0 -8 -19 -13 -24 -6 -3 5 1
9 9 9 8 0 15 -2 15 -3z m2025 -102 c0 -10 7 -16 17 -16 10 1 14 -4 11 -12 -4
-10 0 -12 13 -7 12 4 15 3 10 -5 -4 -7 -1 -12 9 -12 9 0 13 -4 10 -10 -3 -5 3
-10 14 -10 11 0 27 -10 35 -22 9 -12 16 -19 16 -15 0 4 8 -1 18 -10 11 -10 16
-22 13 -28 -2 -5 2 -5 10 2 12 10 18 8 29 -7 8 -11 20 -20 28 -20 7 0 10 -4 7
-10 -3 -5 -1 -10 4 -10 14 0 9 -34 -8 -54 -7 -9 -11 -23 -7 -31 3 -9 2 -14 -3
-11 -5 3 -15 -2 -22 -11 -10 -12 -10 -14 -1 -9 6 4 12 2 12 -3 0 -6 -3 -11 -7
-11 -5 0 -9 -12 -10 -27 0 -14 -8 -30 -15 -34 -9 -5 -14 -21 -13 -38 1 -24 -1
-28 -11 -20 -11 9 -13 3 -10 -26 1 -20 -2 -39 -7 -42 -6 -3 -7 -1 -3 5 3 6 2
13 -3 16 -13 9 -7 -19 8 -38 11 -13 11 -16 0 -17 -10 0 -10 -2 -2 -5 7 -3 9
-12 6 -20 -3 -8 0 -14 6 -14 6 0 11 -5 11 -11 0 -5 -4 -7 -10 -4 -5 3 -10 2
-10 -3 0 -5 10 -14 23 -20 12 -6 16 -11 10 -11 -7 -1 -13 -6 -13 -12 0 -5 5
-7 11 -3 8 5 8 1 0 -14 -14 -26 -14 -35 -1 -27 11 7 9 -23 -3 -42 -5 -8 0 -9
15 -6 23 5 23 5 3 -11 -13 -10 -15 -14 -4 -11 23 8 27 -96 4 -118 -8 -9 -14
-22 -13 -29 2 -7 -3 -12 -10 -10 -10 2 -10 -2 -2 -18 8 -16 8 -20 -2 -18 -7 2
-12 -3 -11 -9 2 -7 -2 -13 -9 -13 -6 0 -9 -3 -5 -6 3 -4 -4 -15 -16 -26 -12
-11 -16 -17 -9 -13 6 3 12 1 12 -4 0 -6 -4 -11 -9 -11 -6 0 -8 -9 -6 -20 2
-11 0 -18 -4 -15 -5 2 -15 -3 -22 -12 -12 -14 -12 -16 1 -8 11 6 12 5 5 -3 -8
-8 -21 -9 -43 -3 -21 7 -34 6 -38 -1 -5 -7 -2 -8 6 -3 9 6 11 4 6 -4 -6 -9
-13 -8 -29 6 -11 10 -17 13 -14 7 8 -13 -19 -28 -27 -15 -3 4 -21 6 -41 5 -26
-2 -34 0 -28 9 4 7 -6 4 -21 -7 -16 -10 -26 -14 -22 -8 3 5 -1 13 -10 16 -8 3
-13 2 -10 -3 9 -15 -22 -21 -33 -7 -6 7 -22 11 -36 8 -15 -2 -25 0 -25 7 0 6
5 11 11 11 5 0 7 4 4 10 -4 6 1 7 11 3 12 -4 15 -3 10 5 -4 7 2 27 13 45 11
17 20 36 20 40 0 12 28 37 34 31 3 -3 4 3 4 13 -1 11 4 17 12 15 12 -3 12 0 2
12 -11 13 -10 17 3 22 13 5 14 9 5 20 -7 8 -9 17 -5 21 3 3 6 1 6 -5 0 -7 8
-12 18 -11 11 0 12 2 4 6 -10 4 -10 8 0 21 7 9 8 13 2 9 -6 -4 -20 3 -30 16
-19 21 -19 21 0 7 18 -14 19 -14 8 6 -6 12 -8 24 -4 28 3 4 -1 4 -9 1 -9 -3
-22 1 -29 10 -11 13 -10 14 6 8 12 -4 7 5 -14 25 -17 17 -32 36 -32 42 0 6 -4
9 -9 5 -6 -3 -8 4 -6 15 2 11 0 18 -6 15 -5 -4 -9 1 -9 11 0 13 -3 14 -14 5
-11 -9 -12 -6 -8 15 3 19 1 25 -7 20 -6 -4 -11 -1 -11 9 0 8 -7 18 -15 21 -8
4 -12 10 -9 15 3 5 10 6 16 3 7 -4 8 -2 4 4 -4 6 -13 9 -21 5 -14 -5 -20 7
-16 30 1 5 -3 6 -9 2 -5 -3 -10 -1 -10 4 0 21 -3 26 -22 40 -11 7 -17 19 -14
26 3 9 -1 12 -12 10 -15 -3 -17 9 -18 109 0 99 2 113 19 125 16 12 20 12 28 0
8 -12 13 -7 11 12 -1 3 14 5 31 4 33 -2 71 21 61 36 -3 5 1 6 9 3 8 -3 24 4
35 16 13 14 25 19 34 14 10 -6 10 -4 -1 9 -12 15 -12 17 3 11 9 -4 16 -1 16 6
0 10 3 10 14 1 12 -10 13 -8 9 10 -4 14 -2 20 4 16 5 -4 19 2 30 13 12 10 24
16 27 13 3 -4 6 -1 6 6 0 7 5 9 10 6 9 -6 14 8 11 28 -1 5 2 6 7 3 4 -2 14 -1
22 4 18 11 35 -3 35 -28z m1430 18 c3 -5 1 -10 -4 -10 -6 0 -11 5 -11 10 0 6
2 10 4 10 3 0 8 -4 11 -10z m-2655 -565 c-11 -13 -10 -14 6 -9 10 4 16 4 12
-1 -4 -4 -3 -14 3 -21 7 -8 7 -14 -1 -19 -8 -5 -6 -14 7 -28 10 -11 13 -18 8
-14 -7 3 -11 -9 -10 -33 0 -21 3 -36 8 -33 9 5 9 0 1 -21 -3 -9 -11 -13 -18
-9 -6 3 -8 3 -4 -2 4 -4 2 -15 -5 -23 -10 -13 -9 -15 3 -8 8 4 6 0 -4 -8 -15
-12 -16 -16 -5 -16 10 -1 9 -5 -5 -15 -14 -11 -16 -15 -5 -15 11 0 12 -2 1 -9
-8 -4 -14 -12 -15 -17 -1 -5 -5 -8 -8 -7 -4 1 -4 -7 -1 -19 4 -16 2 -19 -8
-13 -9 5 -11 4 -6 -4 4 -6 2 -19 -6 -28 -11 -14 -11 -16 2 -8 12 7 13 6 3 -7
-7 -8 -9 -19 -5 -23 4 -5 2 -5 -4 -2 -7 4 -15 0 -18 -9 -4 -10 -2 -13 7 -9 6
4 4 0 -5 -8 -14 -11 -15 -16 -5 -26 9 -10 8 -11 -4 -6 -10 4 -20 1 -25 -6 -4
-8 -3 -10 4 -5 16 9 15 -7 0 -22 -9 -9 -9 -12 0 -12 10 0 10 -3 0 -14 -9 -10
-15 -11 -20 -2 -5 7 -8 4 -8 -8 0 -16 -2 -17 -17 -5 -9 8 -14 9 -10 3 4 -7 0
-14 -8 -18 -8 -3 -17 -1 -20 4 -3 5 -13 6 -22 3 -12 -5 -14 -3 -8 8 6 9 0 8
-19 -5 -16 -10 -26 -14 -22 -8 3 5 -1 13 -10 16 -8 3 -13 2 -10 -3 3 -5 -1
-11 -9 -15 -8 -3 -17 -1 -20 3 -8 13 -55 19 -62 8 -4 -6 -1 -7 7 -2 8 5 11 4
6 -3 -4 -7 -14 -6 -33 3 -15 8 -31 11 -37 8 -6 -4 -5 1 2 10 8 9 10 22 6 28
-4 7 -3 9 3 6 12 -8 26 20 18 33 -3 5 4 15 16 23 13 10 17 17 10 22 -15 9 -2
28 14 21 9 -3 11 2 7 16 -3 12 -1 19 4 15 6 -3 10 11 9 34 0 21 -4 39 -9 39
-5 0 -2 8 5 17 10 11 10 14 2 9 -7 -4 -13 -2 -13 3 0 6 5 11 10 11 6 0 3 9 -7
20 -11 11 -19 34 -18 52 0 18 -4 36 -10 40 -6 5 -5 8 4 8 10 0 9 6 -4 27 -15
23 -15 25 -2 20 13 -5 15 -2 8 16 -8 20 -6 23 15 23 13 0 24 -5 24 -10 0 -6 5
-4 10 4 7 11 10 11 10 2 0 -7 5 -10 10 -7 6 3 10 0 10 -7 0 -10 2 -10 8 -1 5
8 13 9 22 3 8 -5 21 -5 32 1 13 7 18 6 18 -2 0 -7 3 -9 7 -6 3 4 12 2 20 -4 7
-6 13 -7 13 -2 0 5 7 10 15 10 10 0 14 -6 10 -16 -5 -13 -4 -13 12 0 10 8 25
15 33 15 8 -1 24 9 37 22 13 13 28 20 35 16 7 -5 8 -3 3 6 -5 8 -1 18 10 27
25 17 30 17 15 -2z"/>
<path d="M1576 4368 c3 -5 10 -6 15 -3 13 9 11 12 -6 12 -8 0 -12 -4 -9 -9z"/>
<path d="M155 4110 c-3 -5 -1 -10 4 -10 6 0 11 5 11 10 0 6 -2 10 -4 10 -3 0
-8 -4 -11 -10z"/>
<path d="M4010 4041 c0 -6 4 -12 8 -15 5 -3 9 1 9 9 0 8 -4 15 -9 15 -4 0 -8
-4 -8 -9z"/>
<path d="M4813 4005 c0 -8 4 -12 9 -9 5 3 6 10 3 15 -9 13 -12 11 -12 -6z"/>
<path d="M575 3540 c3 -5 8 -10 11 -10 2 0 4 5 4 10 0 6 -5 10 -11 10 -5 0 -7
-4 -4 -10z"/>
<path d="M5515 3121 c-3 -5 -2 -12 3 -15 5 -3 9 1 9 9 0 17 -3 19 -12 6z"/>
<path d="M4070 3031 c0 -6 4 -13 10 -16 6 -3 7 1 4 9 -7 18 -14 21 -14 7z"/>
<path d="M1929 2173 c-12 -16 -12 -17 2 -6 9 7 20 9 24 5 5 -4 5 -1 1 6 -9 16
-11 15 -27 -5z"/>
<path d="M1943 1963 c4 -3 1 -13 -6 -22 -11 -14 -10 -14 5 -2 16 12 16 31 1
31 -4 0 -3 -3 0 -7z"/>
<path d="M5398 1693 c7 -3 16 -2 19 1 4 3 -2 6 -13 5 -11 0 -14 -3 -6 -6z"/>
<path d="M4056 2502 c-3 -5 1 -9 9 -9 8 0 12 4 9 9 -3 4 -7 8 -9 8 -2 0 -6 -4
-9 -8z"/>
<path d="M2743 1845 c0 -8 4 -12 9 -9 5 3 6 10 3 15 -9 13 -12 11 -12 -6z"/>
<path d="M180 3646 c0 -2 7 -7 16 -10 8 -3 12 -2 9 4 -6 10 -25 14 -25 6z"/>
<path d="M1211 3044 c0 -11 3 -14 6 -6 3 7 2 16 -1 19 -3 4 -6 -2 -5 -13z"/>
<path d="M1530 2900 c0 -5 5 -10 11 -10 5 0 7 5 4 10 -3 6 -8 10 -11 10 -2 0
-4 -4 -4 -10z"/>
<path d="M4646 2057 c3 -10 9 -15 12 -12 3 3 0 11 -7 18 -10 9 -11 8 -5 -6z"/>
<path d="M4930 1856 c0 -2 8 -10 18 -17 15 -13 16 -12 3 4 -13 16 -21 21 -21
13z"/>
<path d="M5226 1635 c4 -8 11 -15 16 -15 6 0 5 6 -2 15 -7 8 -14 15 -16 15 -2
0 -1 -7 2 -15z"/>
</g>
</svg>
